<svg width="195" height="194" viewBox="0 0 195 194" fill="none" xmlns="http://www.w3.org/2000/svg">
<path d="M184.892 194H10.1079C4.52454 194 0 189.475 0 183.892V10.108C0 4.5246 4.52454 0 10.1079 0H184.885C190.468 0 194.993 4.5246 194.993 10.108V183.885C195 189.475 190.475 194 184.892 194Z" fill="#0E7D35"/>
<path opacity="0.46" d="M195 166.217H11.0186V186.073H195V166.217Z" fill="#055C21"/>
<path d="M186.615 166.217H11.0186V186.073H186.615V166.217Z" fill="white"/>
<path d="M195 158.389H0V10.108C0 4.5246 4.52454 0 10.1079 0H184.885C190.468 0 194.993 4.5246 194.993 10.108V158.389H195Z" fill="url(#paint0_linear_3904_813)"/>
<path d="M19.9476 0H10.1079V158.389H19.9476V0Z" fill="#11A042"/>
<path d="M186.615 166.217H11.0186V173.777H186.615V166.217Z" fill="#E8F8EE"/>
<path d="M142.308 166.217V180.969C142.308 182.049 143.409 182.776 144.404 182.353L159.34 175.965L173.895 182.261C174.975 182.727 176.189 181.936 176.189 180.758V166.224H142.308V166.217Z" fill="#ED6C71"/>
<path d="M106.337 24.7759C134.303 24.7759 157.688 42.3943 163.582 65.9702H178.504C172.391 35.0674 142.421 11.6045 106.337 11.6045C70.2538 11.6045 40.2831 35.0674 34.1704 65.9702H49.0922C54.9861 42.3943 78.3712 24.7759 106.337 24.7759Z" fill="white"/>
<path d="M106.337 136.027C78.3712 136.027 54.9861 118.409 49.0922 94.833H34.1704C40.2831 125.736 70.2538 149.199 106.337 149.199C142.421 149.199 172.391 125.736 178.504 94.833H163.582C157.688 118.409 134.303 136.027 106.337 136.027Z" fill="white"/>
<path d="M70.8186 61.9824H69.6892C62.4542 61.9966 56.5391 67.9258 56.5532 75.161L56.5744 87.083C56.5885 94.3181 62.5177 100.233 69.7528 100.219H70.8821C78.1172 100.205 84.0322 94.2758 84.0181 87.0407L83.997 75.1186C83.9828 67.8835 78.0536 61.9683 70.8186 61.9824Z" fill="white"/>
<path d="M72.6113 71.8926H71.7713C68.3408 71.8997 65.5315 74.7161 65.5386 78.1466L65.5527 87.6263C65.5598 91.0568 68.3761 93.8662 71.8066 93.8591H72.6466C76.077 93.8521 78.8863 91.0427 78.8793 87.6052L78.8652 78.1254C78.8581 74.6878 76.0417 71.8855 72.6113 71.8926Z" fill="black"/>
<path d="M72.195 73.8618C72.195 75.7041 70.7127 77.1934 68.8704 77.2005C67.0282 77.2005 65.5388 75.7182 65.5317 73.8759C65.5317 72.0336 67.014 70.5442 68.8563 70.5371C70.6986 70.5301 72.188 72.0195 72.195 73.8618Z" fill="white"/>
<path d="M142.922 61.8408H141.792C134.557 61.855 128.642 67.7842 128.656 75.0193L128.677 86.9414C128.692 94.1765 134.621 100.092 141.856 100.078H142.985C150.22 100.063 156.135 94.1342 156.121 86.8991L156.1 74.977C156.086 67.7419 150.157 61.8267 142.922 61.8408Z" fill="white"/>
<path d="M140.578 71.6943H139.773C136.484 71.7014 133.795 74.3978 133.802 77.6871L133.816 86.7716C133.823 90.0609 136.519 92.7432 139.809 92.7432H140.613C143.903 92.7362 146.592 90.0398 146.585 86.7504L146.571 77.666C146.557 74.3766 143.867 71.6943 140.578 71.6943Z" fill="black"/>
<path d="M140.176 73.5868C140.176 75.3515 138.75 76.7773 136.992 76.7844C135.228 76.7844 133.802 75.3585 133.795 73.6009C133.795 71.8363 135.221 70.4104 136.978 70.4033C138.743 70.3963 140.176 71.8221 140.176 73.5868Z" fill="white"/>
<defs>
<linearGradient id="paint0_linear_3904_813" x1="97.4993" y1="158.387" x2="97.4993" y2="0" gradientUnits="userSpaceOnUse">
<stop stop-color="#0D8A36"/>
<stop offset="0.6241" stop-color="#50CB84"/>
<stop offset="0.9916" stop-color="#A1E4BA"/>
</linearGradient>
</defs>
</svg>