<?xml version="1.0" encoding="utf-8"?>
<!-- Generator: Adobe Illustrator 21.1.0, SVG Export Plug-In . SVG Version: 6.00 Build 0)  -->
<svg version="1.1" id="Layer_1" xmlns="http://www.w3.org/2000/svg" xmlns:xlink="http://www.w3.org/1999/xlink" x="0px" y="0px"
	 viewBox="0 0 1502 391.6" style="enable-background:new 0 0 1502 391.6;" xml:space="preserve">
<style type="text/css">
	.st0{fill:#ffffff;}
	.st1{fill:#ffffff;}
</style>
<title>Asset 1</title>
<g id="Layer_2">
	<g id="Layer_1-2">
		<path class="st0" d="M108,257.6c-59.3,0-107.4-48.1-107.4-107.4S48.7,42.8,108,42.8s107.3,48,107.4,107.3
			C215.3,209.4,167.3,257.5,108,257.6z M108,85.7c-35.4-0.1-64.2,28.5-64.3,63.9s28.5,64.2,63.9,64.3s64.2-28.4,64.3-63.8
			c0-35.3-28.6-63.9-63.9-64.1C108,86,108,85.7,108,85.7z"/>
		<path class="st0" d="M729.9,257.8C670.6,258,622.4,210,622.2,150.7S670,43.2,729.3,43S836.8,90.8,837,150.1c0,0.1,0,0.2,0,0.3
			C836.9,209.6,789,257.5,729.9,257.8z M729.9,85.9c-35.4,0-64.1,28.7-64.1,64.1s28.7,64.1,64.1,64.1c35.4,0,64.1-28.7,64.1-64.1
			c-0.2-35.3-28.8-63.8-64.1-63.8V85.9z"/>
		<path class="st0" d="M1137.1,257.8c-59.3,0-107.5-48-107.5-107.4c0-59.3,48-107.5,107.4-107.5c59.3,0,107.5,48,107.5,107.4v0.1
			c-0.1,11.9-9.8,21.5-21.7,21.4h-146.2c11.9,33.4,48.6,50.8,82,38.9c5.1-1.8,10-4.3,14.5-7.4c9.9-6.7,23.3-4.2,30,5.7
			s4.2,23.3-5.7,30l0,0C1179.8,251.3,1158.7,257.8,1137.1,257.8z M1076.7,128.7h120.8c-12-33.4-48.7-50.7-82.1-38.7
			C1097.4,96.5,1083.2,110.7,1076.7,128.7z"/>
		<path class="st0" d="M1394.4,257.8c-59.3-0.1-107.4-48.3-107.3-107.6s48.3-107.4,107.6-107.3C1454,43,1502,91.1,1502,150.4
			c-0.1,11.9-9.8,21.5-21.7,21.4h-0.1H1334c12,33.4,48.8,50.7,82.1,38.7c5.1-1.8,9.9-4.3,14.4-7.3c9.9-6.7,23.4-4.2,30.1,5.8
			c6.7,9.9,4.2,23.4-5.8,30.1l0,0C1437,251.3,1416,257.8,1394.4,257.8z M1334,128.7h120.8c-12-33.4-48.7-50.7-82.1-38.7
			C1354.7,96.5,1340.5,110.7,1334,128.7z"/>
		<path class="st0" d="M451.6,140.2h-43.3c0-29.7-24-53.7-53.7-53.7s-53.7,24-53.7,53.7h-43.3c3.6-53.5,50-94,103.5-90.3
			C409.6,53.1,448.2,91.7,451.6,140.2L451.6,140.2z"/>
		<path class="st0" d="M579.1,258c-43.5,0-78.7-35.2-78.9-78.7c0-11.9,9.7-21.6,21.6-21.6c11.9,0,21.6,9.7,21.6,21.6
			c0,19.7,16,35.6,35.6,35.6c11.9,0,21.6,9.7,21.6,21.6c0,11.9-9.7,21.6-21.6,21.6V258H579.1z"/>
		<path class="st0" d="M901.3,171.8c-11.9,0-21.6-9.7-21.6-21.6c0.2-59.6,48.6-107.9,108.2-108c11.9,0,21.6,9.7,21.6,21.6
			s-9.7,21.6-21.6,21.6c-35.9,0-65,29.1-65,65C922.7,162.4,913.1,171.8,901.3,171.8z"/>
		<path class="st0" d="M194.3,257c-11.9,0-21.6-9.7-21.6-21.6v-171c0-11.9,9.7-21.6,21.6-21.6c11.9,0,21.6,9.7,21.6,21.6v171
			c0,11.9-9.6,21.6-21.5,21.7C194.4,257,194.4,257,194.3,257z"/>
		<path class="st0" d="M279.4,257.5c-11.9,0-21.6-9.7-21.6-21.6v-171c0-11.9,9.7-21.6,21.6-21.6S301,53,301,64.9v171
			C301,247.8,291.4,257.5,279.4,257.5L279.4,257.5z"/>
		<path class="st0" d="M901.3,257c-11.9,0-21.6-9.7-21.6-21.6v-171c0-11.9,9.7-21.6,21.6-21.6S923,52.4,923,64.4v171
			c0,11.9-9.6,21.6-21.5,21.7C901.4,257,901.3,257,901.3,257z"/>
		<path class="st0" d="M521.8,200.8c-11.9,0-21.5-9.6-21.6-21.4V21.6c0-11.9,9.7-21.6,21.6-21.6c11.9,0,21.6,9.7,21.6,21.6v157.7
			C543.4,191.2,533.7,200.8,521.8,200.8z"/>
		<path class="st0" d="M429.9,257.5c-11.9,0-21.6-9.7-21.6-21.6v-99.4c0-11.9,9.7-21.6,21.6-21.6s21.6,9.7,21.6,21.6l0,0v99.4
			C451.6,247.8,441.9,257.5,429.9,257.5C430,257.5,429.9,257.5,429.9,257.5z"/>
		<path class="st0" d="M579.4,86.1h-86.2c-11.9,0-21.6-9.7-21.6-21.6s9.7-21.6,21.6-21.6h85.9c11.9,0,21.6,9.7,21.6,21.6
			s-9.7,21.6-21.6,21.6H579.4z"/>
<text x="50%" y="375" text-anchor="middle" fill="#ffffff" font-size="84" font-family="Arial, sans-serif">
  Books for English Learners of All Levels
</text>
	</g>
</g>
</svg>
